<svg width="25" height="23" viewBox="0 0 25 23" fill="none" xmlns="http://www.w3.org/2000/svg">
<path d="M16.3945 22.3945C18.3047 22.3945 19.8867 20.8125 19.8867 18.9023C19.8867 16.9922 18.3047 15.4102 16.3945 15.4102C14.4727 15.4102 12.8906 16.9922 12.8906 18.9023C12.8906 20.8125 14.4727 22.3945 16.3945 22.3945Z" fill="black" fill-opacity="0.85"/>
<path d="M7.79297 22.3945C9.71484 22.3945 11.2969 20.8125 11.2969 18.9023C11.2969 16.9922 9.71484 15.4102 7.79297 15.4102C5.88281 15.4102 4.30078 16.9922 4.30078 18.9023C4.30078 20.8008 5.87109 22.3945 7.79297 22.3945Z" fill="black" fill-opacity="0.85"/>
<path d="M20.6836 14.707C22.5938 14.707 24.1875 13.1133 24.1875 11.2031C24.1875 9.29297 22.5938 7.69922 20.6836 7.69922C18.7734 7.69922 17.1797 9.29297 17.1797 11.2031C17.1797 13.1133 18.7734 14.707 20.6836 14.707Z" fill="black" fill-opacity="0.85"/>
<path d="M12.0938 14.707C14.0039 14.707 15.5977 13.1133 15.5977 11.2031C15.5977 9.29297 14.0039 7.69922 12.0938 7.69922C10.1836 7.69922 8.58984 9.29297 8.58984 11.2031C8.58984 13.1133 10.1836 14.707 12.0938 14.707Z" fill="black" fill-opacity="0.85"/>
<path d="M3.50391 14.707C5.41406 14.707 7.00781 13.1133 7.00781 11.2031C7.00781 9.29297 5.41406 7.69922 3.50391 7.69922C1.59375 7.69922 0 9.29297 0 11.2031C0 13.1016 1.57031 14.707 3.50391 14.707Z" fill="black" fill-opacity="0.85"/>
<path d="M16.3945 6.99609C18.3047 6.99609 19.8867 5.40234 19.8867 3.50391C19.8867 1.59375 18.3047 0 16.3945 0C14.4727 0 12.8906 1.59375 12.8906 3.50391C12.8906 5.40234 14.4727 6.99609 16.3945 6.99609Z" fill="black" fill-opacity="0.85"/>
<path d="M7.79297 6.99609C9.71484 6.99609 11.2969 5.40234 11.2969 3.50391C11.2969 1.59375 9.71484 0 7.79297 0C5.88281 0 4.30078 1.59375 4.30078 3.50391C4.30078 5.39062 5.87109 6.99609 7.79297 6.99609Z" fill="black" fill-opacity="0.85"/>
</svg>