<svg width="24" height="24" viewBox="0 0 24 24" fill="none" xmlns="http://www.w3.org/2000/svg">
<path d="M0 19.5146C0 21.9404 1.24219 23.1474 3.67969 23.1474H17.0859C19.5352 23.1474 20.7656 21.9404 20.7656 19.5146V6.01465C20.7656 3.60059 19.5352 2.38184 17.0859 2.38184H3.67969C1.24219 2.38184 0 3.60059 0 6.01465V19.5146ZM3.71484 4.26856H17.0625C18.2344 4.26856 18.8789 4.90137 18.8789 6.12012V19.4209C18.8789 20.6396 18.2344 21.2607 17.0625 21.2607H3.71484C2.54297 21.2607 1.88672 20.6396 1.88672 19.4209V6.12012C1.88672 4.90137 2.54297 4.26856 3.71484 4.26856Z" fill="black" fill-opacity="0.85"/>
<path d="M7.94528 15.5537L10.2305 14.5576L21.1758 3.62397L19.5703 2.04194L8.63669 12.9756L7.582 15.1787C7.48825 15.3779 7.72263 15.6474 7.94528 15.5537ZM22.043 2.7685L22.8867 1.90131C23.2852 1.47944 23.2852 0.916939 22.8867 0.530219L22.6172 0.248969C22.2539 -0.114311 21.6797 -0.0674414 21.293 0.307559L20.4375 1.15131L22.043 2.7685Z" fill="black" fill-opacity="0.85"/>
</svg>