<svg width="9" height="9" viewBox="0 0 9 9" fill="none" xmlns="http://www.w3.org/2000/svg">
<path d="M4.2692 2.85909C3.96762 2.85909 3.6728 2.94852 3.42204 3.11607C3.17128 3.28362 2.97584 3.52177 2.86043 3.8004C2.74501 4.07903 2.71482 4.38563 2.77365 4.68142C2.83249 4.97721 2.97772 5.24891 3.19097 5.46216C3.40423 5.67542 3.67593 5.82065 3.97172 5.87948C4.26751 5.93832 4.57411 5.90812 4.85274 5.79271C5.13136 5.6773 5.36951 5.48185 5.53707 5.23109C5.70462 4.98033 5.79405 4.68552 5.79405 4.38393C5.79284 3.97989 5.6318 3.59274 5.3461 3.30704C5.06039 3.02134 4.67324 2.86029 4.2692 2.85909ZM7.56135 4.38393C7.56055 4.52642 7.55011 4.66868 7.53009 4.80975L8.45815 5.53634C8.49857 5.56971 8.5258 5.61637 8.53499 5.66798C8.54417 5.71959 8.5347 5.77278 8.50828 5.81805L7.63034 7.33375C7.60366 7.37862 7.562 7.41264 7.5127 7.42983C7.46341 7.44702 7.40963 7.44627 7.36083 7.42772L6.26961 6.98933C6.04239 7.1643 5.79373 7.30951 5.52968 7.42143L5.36652 8.57993C5.35739 8.63183 5.33052 8.67894 5.2905 8.71321C5.25049 8.74749 5.19981 8.76681 5.14713 8.76787H3.39127C3.33955 8.76686 3.2897 8.74835 3.24985 8.71536C3.21001 8.68237 3.18252 8.63685 3.17188 8.58622L3.00872 7.42772C2.74395 7.3171 2.49511 7.17166 2.26879 6.99524L1.17757 7.43363C1.1288 7.4522 1.07503 7.45297 1.02574 7.43582C0.976445 7.41867 0.934775 7.38469 0.908058 7.33985L0.0301269 5.82434C0.00370092 5.77907 -0.00576633 5.72588 0.003417 5.67427C0.0126003 5.62266 0.0398358 5.576 0.0802563 5.54263L1.00832 4.81604C0.988521 4.67284 0.978079 4.5285 0.977057 4.38393C0.97785 4.24145 0.988294 4.09919 1.00832 3.95812L0.0802563 3.23153C0.0398358 3.19816 0.0126003 3.1515 0.003417 3.09989C-0.00576633 3.04828 0.00370092 2.99509 0.0301269 2.94982L0.908058 1.43412C0.934746 1.38925 0.976403 1.35523 1.0257 1.33804C1.075 1.32085 1.12877 1.3216 1.17757 1.34015L2.26879 1.77854C2.49602 1.60357 2.74468 1.45836 3.00872 1.34644L3.17188 0.187937C3.18102 0.136045 3.20788 0.0889339 3.2479 0.0546551C3.28791 0.0203764 3.33859 0.00105762 3.39127 0H5.14713C5.19885 0.00100669 5.2487 0.0195164 5.28855 0.0525074C5.3284 0.0854985 5.35588 0.131022 5.36652 0.181647L5.52968 1.34015C5.79479 1.4507 6.04395 1.59614 6.27056 1.77263L7.36083 1.33424C7.40961 1.31567 7.46337 1.3149 7.51266 1.33205C7.56196 1.3492 7.60363 1.38318 7.63034 1.42802L8.50828 2.94372C8.5347 2.98899 8.54417 3.04218 8.53499 3.09379C8.5258 3.1454 8.49857 3.19206 8.45815 3.22543L7.53009 3.95202C7.54987 4.09516 7.56031 4.23944 7.56135 4.38393Z" fill="black"/>
</svg>