<svg width="5" height="5" viewBox="0 0 5 5" fill="none" xmlns="http://www.w3.org/2000/svg">
<path d="M4.02622 2.49904C3.91576 2.49904 3.80982 2.45515 3.73171 2.37704C3.6536 2.29893 3.60972 2.19299 3.60972 2.08253C3.60972 1.97207 3.6536 1.86613 3.73171 1.78802C3.80982 1.70991 3.91576 1.66602 4.02622 1.66602C4.13669 1.66602 4.24263 1.70991 4.32074 1.78802C4.39885 1.86613 4.44273 1.97207 4.44273 2.08253C4.44273 2.19299 4.39885 2.29893 4.32074 2.37704C4.24263 2.45515 4.13669 2.49904 4.02622 2.49904ZM3.19321 1.38835C3.08275 1.38835 2.97681 1.34447 2.8987 1.26636C2.82059 1.18825 2.77671 1.08231 2.77671 0.971847C2.77671 0.861383 2.82059 0.755443 2.8987 0.677333C2.97681 0.599223 3.08275 0.555341 3.19321 0.555341C3.30368 0.555341 3.40962 0.599223 3.48773 0.677333C3.56584 0.755443 3.60972 0.861383 3.60972 0.971847C3.60972 1.08231 3.56584 1.18825 3.48773 1.26636C3.40962 1.34447 3.30368 1.38835 3.19321 1.38835ZM1.80486 1.38835C1.69439 1.38835 1.58845 1.34447 1.51034 1.26636C1.43224 1.18825 1.38835 1.08231 1.38835 0.971847C1.38835 0.861383 1.43224 0.755443 1.51034 0.677333C1.58845 0.599223 1.69439 0.555341 1.80486 0.555341C1.91532 0.555341 2.02126 0.599223 2.09937 0.677333C2.17748 0.755443 2.22137 0.861383 2.22137 0.971847C2.22137 1.08231 2.17748 1.18825 2.09937 1.26636C2.02126 1.34447 1.91532 1.38835 1.80486 1.38835ZM0.971847 2.49904C0.861383 2.49904 0.755443 2.45515 0.677333 2.37704C0.599223 2.29893 0.555341 2.19299 0.555341 2.08253C0.555341 1.97207 0.599223 1.86613 0.677333 1.78802C0.755443 1.70991 0.861383 1.66602 0.971847 1.66602C1.08231 1.66602 1.18825 1.70991 1.26636 1.78802C1.34447 1.86613 1.38835 1.97207 1.38835 2.08253C1.38835 2.19299 1.34447 2.29893 1.26636 2.37704C1.18825 2.45515 1.08231 2.49904 0.971847 2.49904ZM2.49904 0C1.83625 0 1.20061 0.26329 0.731951 0.731951C0.26329 1.20061 0 1.83625 0 2.49904C0 3.16182 0.26329 3.79746 0.731951 4.26612C1.20061 4.73478 1.83625 4.99807 2.49904 4.99807C2.6095 4.99807 2.71544 4.95419 2.79355 4.87608C2.87166 4.79797 2.91554 4.69203 2.91554 4.58157C2.91554 4.47327 2.87389 4.37609 2.80725 4.30389C2.74339 4.22892 2.70174 4.13174 2.70174 4.02622C2.70174 3.91576 2.74562 3.80982 2.82373 3.73171C2.90184 3.6536 3.00778 3.60972 3.11824 3.60972H3.60972C3.97793 3.60972 4.33107 3.46345 4.59143 3.20308C4.8518 2.94271 4.99807 2.58958 4.99807 2.22137C4.99807 0.994061 3.87906 0 2.49904 0Z" fill="black"/>
</svg>