<svg width="24" height="24" viewBox="0 0 24 24" fill="none" xmlns="http://www.w3.org/2000/svg">
<path d="M17.0117 3.3446C15.5382 2.48956 13.8262 2 12 2C6.47715 2 2 6.47715 2 12C2 17.5229 6.47715 22 12 22C17.5229 22 22 17.5229 22 12C22 10.1863 21.5172 8.48545 20.673 7.01885" stroke="#333333" stroke-width="2" stroke-linecap="round" stroke-linejoin="round"/>
<path d="M15.975 8.02515C15.975 8.02515 14.2812 12.5474 13.5002 13.3284C12.7191 14.1095 11.4528 14.1095 10.6717 13.3284C9.89068 12.5474 9.89068 11.281 10.6717 10.5C11.4528 9.71895 15.975 8.02515 15.975 8.02515Z" fill="#333333" stroke="#333333" stroke-width="2" stroke-linejoin="round"/>
</svg>