<svg width="22" height="23" viewBox="0 0 22 23" fill="none" xmlns="http://www.w3.org/2000/svg">
<path d="M15.0002 22V18.13C15.0377 17.6532 14.9733 17.1738 14.8112 16.7238C14.6491 16.2738 14.3931 15.8634 14.0602 15.52C17.2002 15.17 20.5002 13.98 20.5002 8.52C20.4999 7.12383 19.9629 5.7812 19.0002 4.77C19.4561 3.54851 19.4238 2.19835 18.9102 0.999999C18.9102 0.999999 17.7302 0.649999 15.0002 2.48C12.7082 1.85882 10.2922 1.85882 8.0002 2.48C5.2702 0.649999 4.0902 0.999999 4.0902 0.999999C3.57657 2.19835 3.54434 3.54851 4.0002 4.77C3.03033 5.7887 2.49272 7.14346 2.5002 8.55C2.5002 13.97 5.8002 15.16 8.9402 15.55C8.6112 15.89 8.35746 16.2954 8.19551 16.7399C8.03355 17.1844 7.96701 17.6581 8.0002 18.13V22M8.0002 19C3.0002 20.5 3.0002 16.5 1.0002 16L8.0002 19Z" stroke="black" stroke-width="2" stroke-linecap="round" stroke-linejoin="round"/>
</svg>